<mxfile host="65bd71144e">
    <diagram id="lkOzOinqgY_2G3waXa6N" name="Page-1">
        <mxGraphModel dx="-171" dy="519" grid="1" gridSize="10" guides="1" tooltips="1" connect="1" arrows="1" fold="1" page="1" pageScale="1" pageWidth="827" pageHeight="1169" math="0" shadow="0">
            <root>
                <mxCell id="0"/>
                <mxCell id="1" parent="0"/>
                <mxCell id="3" value="&lt;font style=&quot;font-size: 27px;&quot;&gt;Architecture and Design&lt;/font&gt;" style="text;html=1;align=center;verticalAlign=middle;resizable=0;points=[];autosize=1;strokeColor=none;fillColor=none;fontSize=27;" vertex="1" parent="1">
                    <mxGeometry x="860" y="50" width="300" height="40" as="geometry"/>
                </mxCell>
                <mxCell id="4" value="Logical architecture" style="text;html=1;strokeColor=none;fillColor=none;align=left;verticalAlign=middle;whiteSpace=wrap;rounded=0;fontSize=21;" vertex="1" parent="1">
                    <mxGeometry x="870" y="140" width="260" height="30" as="geometry"/>
                </mxCell>
                <mxCell id="5" value="&lt;span style=&quot;font-weight: normal&quot;&gt;screens&lt;/span&gt;" style="shape=folder;fontStyle=1;spacingTop=10;tabWidth=40;tabHeight=14;tabPosition=left;html=1;fontSize=27;" vertex="1" parent="1">
                    <mxGeometry x="1370" y="480" width="220" height="100" as="geometry"/>
                </mxCell>
                <mxCell id="6" value="&lt;span style=&quot;font-weight: normal&quot;&gt;models&lt;/span&gt;" style="shape=folder;fontStyle=1;spacingTop=10;tabWidth=40;tabHeight=14;tabPosition=left;html=1;fontSize=27;" vertex="1" parent="1">
                    <mxGeometry x="880" y="480" width="220" height="100" as="geometry"/>
                </mxCell>
                <mxCell id="7" value="&lt;span style=&quot;font-weight: normal&quot;&gt;&lt;font style=&quot;font-size: 22px&quot;&gt;WIDGETS&lt;/font&gt;&lt;/span&gt;" style="shape=folder;fontStyle=1;spacingTop=10;tabWidth=40;tabHeight=14;tabPosition=left;html=1;fontSize=27;" vertex="1" parent="1">
                    <mxGeometry x="1120" y="240" width="220" height="100" as="geometry"/>
                </mxCell>
                <mxCell id="9" value="&lt;font style=&quot;font-size: 16px&quot;&gt;displays model data&lt;/font&gt;" style="text;html=1;strokeColor=none;fillColor=none;align=center;verticalAlign=middle;whiteSpace=wrap;rounded=0;fontSize=18;" vertex="1" parent="1">
                    <mxGeometry x="1030" y="390" width="120" height="20" as="geometry"/>
                </mxCell>
                <mxCell id="10" value="&lt;b&gt;&lt;font style=&quot;font-size: 28px&quot;&gt;MODEL&lt;/font&gt;&lt;/b&gt;" style="text;html=1;strokeColor=none;fillColor=none;align=center;verticalAlign=middle;whiteSpace=wrap;rounded=0;fontSize=16;" vertex="1" parent="1">
                    <mxGeometry x="930" y="440" width="120" height="50" as="geometry"/>
                </mxCell>
                <mxCell id="11" value="&lt;span style=&quot;font-size: 30px&quot;&gt;&lt;b style=&quot;font-size: 28px&quot;&gt;VIEW&lt;/b&gt;&lt;/span&gt;" style="text;html=1;strokeColor=none;fillColor=none;align=center;verticalAlign=middle;whiteSpace=wrap;rounded=0;fontSize=22;" vertex="1" parent="1">
                    <mxGeometry x="1200" y="210" width="60" height="30" as="geometry"/>
                </mxCell>
                <mxCell id="12" value="&lt;b&gt;&lt;font style=&quot;font-size: 23px&quot;&gt;CONTROLLER&lt;/font&gt;&lt;/b&gt;" style="text;html=1;strokeColor=none;fillColor=none;align=center;verticalAlign=middle;whiteSpace=wrap;rounded=0;fontSize=17;" vertex="1" parent="1">
                    <mxGeometry x="1450" y="450" width="90" height="30" as="geometry"/>
                </mxCell>
                <mxCell id="14" value="" style="endArrow=block;dashed=1;endFill=0;endSize=12;html=1;fontSize=23;exitX=0.783;exitY=0.122;exitDx=0;exitDy=0;exitPerimeter=0;entryX=0.181;entryY=1.018;entryDx=0;entryDy=0;entryPerimeter=0;" edge="1" parent="1" source="6" target="7">
                    <mxGeometry width="160" relative="1" as="geometry">
                        <mxPoint x="1160" y="330" as="sourcePoint"/>
                        <mxPoint x="1320" y="330" as="targetPoint"/>
                    </mxGeometry>
                </mxCell>
                <mxCell id="15" value="" style="endArrow=block;dashed=1;endFill=0;endSize=12;html=1;fontSize=23;entryX=0.239;entryY=0.106;entryDx=0;entryDy=0;entryPerimeter=0;" edge="1" parent="1" target="5">
                    <mxGeometry width="160" relative="1" as="geometry">
                        <mxPoint x="1310" y="340" as="sourcePoint"/>
                        <mxPoint x="1323.96" y="360" as="targetPoint"/>
                    </mxGeometry>
                </mxCell>
                <mxCell id="16" value="" style="endArrow=block;dashed=1;endFill=0;endSize=12;html=1;fontSize=23;entryX=0.675;entryY=1.018;entryDx=0;entryDy=0;entryPerimeter=0;exitX=0;exitY=0;exitDx=0;exitDy=0;exitPerimeter=0;" edge="1" parent="1" source="5" target="7">
                    <mxGeometry width="160" relative="1" as="geometry">
                        <mxPoint x="1320" y="480" as="sourcePoint"/>
                        <mxPoint x="1240" y="350" as="targetPoint"/>
                    </mxGeometry>
                </mxCell>
                <mxCell id="17" value="" style="endArrow=block;dashed=1;endFill=0;endSize=12;html=1;fontSize=23;exitX=0;exitY=0;exitDx=220;exitDy=35.5;exitPerimeter=0;entryX=0;entryY=0;entryDx=0;entryDy=35.5;entryPerimeter=0;" edge="1" parent="1" source="6" target="5">
                    <mxGeometry width="160" relative="1" as="geometry">
                        <mxPoint x="1152.26" y="522.2" as="sourcePoint"/>
                        <mxPoint x="1216.22" y="375" as="targetPoint"/>
                    </mxGeometry>
                </mxCell>
                <mxCell id="18" value="" style="endArrow=block;dashed=1;endFill=0;endSize=12;html=1;fontSize=23;exitX=-0.015;exitY=0.722;exitDx=0;exitDy=0;exitPerimeter=0;entryX=1;entryY=0.722;entryDx=0;entryDy=0;entryPerimeter=0;" edge="1" parent="1" source="5" target="6">
                    <mxGeometry width="160" relative="1" as="geometry">
                        <mxPoint x="1162.26" y="532.2" as="sourcePoint"/>
                        <mxPoint x="1226.22" y="385" as="targetPoint"/>
                    </mxGeometry>
                </mxCell>
                <mxCell id="19" value="&lt;div&gt;&lt;span&gt;&lt;font style=&quot;font-size: 17px&quot;&gt;response information&lt;/font&gt;&lt;/span&gt;&lt;/div&gt;" style="text;html=1;strokeColor=none;fillColor=none;align=left;verticalAlign=middle;whiteSpace=wrap;rounded=0;fontSize=23;" vertex="1" parent="1">
                    <mxGeometry x="1145" y="480" width="170" height="30" as="geometry"/>
                </mxCell>
                <mxCell id="20" value="resquests model information" style="text;html=1;strokeColor=none;fillColor=none;align=center;verticalAlign=middle;whiteSpace=wrap;rounded=0;fontSize=17;" vertex="1" parent="1">
                    <mxGeometry x="1145" y="570" width="185" height="30" as="geometry"/>
                </mxCell>
                <mxCell id="21" value="sends user actions" style="text;html=1;strokeColor=none;fillColor=none;align=center;verticalAlign=middle;whiteSpace=wrap;rounded=0;fontSize=17;" vertex="1" parent="1">
                    <mxGeometry x="1350" y="380" width="100" height="30" as="geometry"/>
                </mxCell>
                <mxCell id="22" value="sends&lt;br&gt;data" style="text;html=1;strokeColor=none;fillColor=none;align=center;verticalAlign=middle;whiteSpace=wrap;rounded=0;fontSize=17;" vertex="1" parent="1">
                    <mxGeometry x="1250" y="410" width="60" height="30" as="geometry"/>
                </mxCell>
                <mxCell id="23" value="" style="endArrow=none;dashed=1;html=1;dashPattern=1 3;strokeWidth=2;fontSize=17;exitX=0;exitY=0;exitDx=220;exitDy=57;exitPerimeter=0;" edge="1" parent="1" source="7">
                    <mxGeometry width="50" height="50" relative="1" as="geometry">
                        <mxPoint x="1350" y="300" as="sourcePoint"/>
                        <mxPoint x="1410" y="297" as="targetPoint"/>
                    </mxGeometry>
                </mxCell>
                <mxCell id="28" value="Receives events data&lt;br&gt;and displays it&lt;br&gt;&lt;div style=&quot;text-align: justify&quot;&gt;&lt;/div&gt;" style="shape=note2;boundedLbl=1;whiteSpace=wrap;html=1;size=25;verticalAlign=top;align=left;fontSize=17;" vertex="1" parent="1">
                    <mxGeometry x="1405" y="250" width="180" height="80" as="geometry"/>
                </mxCell>
                <mxCell id="31" value="Keeps all the tasks&amp;nbsp;&lt;br&gt;data&lt;br&gt;&lt;div style=&quot;text-align: justify&quot;&gt;&lt;/div&gt;" style="shape=note2;boundedLbl=1;whiteSpace=wrap;html=1;size=25;verticalAlign=top;align=left;fontSize=17;" vertex="1" parent="1">
                    <mxGeometry x="900" y="640" width="180" height="80" as="geometry"/>
                </mxCell>
                <mxCell id="33" value="" style="endArrow=none;dashed=1;html=1;dashPattern=1 3;strokeWidth=2;fontSize=17;entryX=0.403;entryY=1.026;entryDx=0;entryDy=0;entryPerimeter=0;" edge="1" parent="1" target="6">
                    <mxGeometry width="50" height="50" relative="1" as="geometry">
                        <mxPoint x="969" y="640" as="sourcePoint"/>
                        <mxPoint x="1015" y="590" as="targetPoint"/>
                    </mxGeometry>
                </mxCell>
                <mxCell id="34" value="" style="endArrow=none;dashed=1;html=1;dashPattern=1 3;strokeWidth=2;fontSize=17;exitX=0.5;exitY=1;exitDx=0;exitDy=0;exitPerimeter=0;entryX=0.5;entryY=0;entryDx=0;entryDy=0;entryPerimeter=0;" edge="1" parent="1" source="5" target="35">
                    <mxGeometry width="50" height="50" relative="1" as="geometry">
                        <mxPoint x="1320" y="630" as="sourcePoint"/>
                        <mxPoint x="1390" y="630" as="targetPoint"/>
                    </mxGeometry>
                </mxCell>
                <mxCell id="35" value="Recieves and stores user events on models.&lt;br&gt;Sends notifications&lt;br&gt;to be displayed on VIEW&lt;br&gt;&lt;div style=&quot;text-align: justify&quot;&gt;&lt;/div&gt;" style="shape=note2;boundedLbl=1;whiteSpace=wrap;html=1;size=25;verticalAlign=top;align=left;fontSize=17;" vertex="1" parent="1">
                    <mxGeometry x="1390" y="630" width="180" height="130" as="geometry"/>
                </mxCell>
            </root>
        </mxGraphModel>
    </diagram>
</mxfile>